<svg width="30" height="42" viewBox="0 0 30 42" fill="none" xmlns="http://www.w3.org/2000/svg">
<g clip-path="url(#clip0_25_134)">
<path opacity="0.2" d="M15 42C19.9706 42 24 40.8807 24 39.5C24 38.1193 19.9706 37 15 37C10.0294 37 6 38.1193 6 39.5C6 40.8807 10.0294 42 15 42Z" fill="black"/>
<path opacity="0.6" fill-rule="evenodd" clip-rule="evenodd" d="M14.9999 0C11.0219 0.000208886 7.20684 1.58047 4.39388 4.3932C1.58092 7.20594 0.000417821 11.0208 0 14.9987C0 21.0462 2.10734 22.7352 13.461 39.1932C13.6335 39.4422 13.8637 39.6456 14.132 39.7861C14.4003 39.9266 14.6987 40 15.0016 40C15.3045 40 15.6028 39.9266 15.8711 39.7861C16.1394 39.6456 16.3697 39.4422 16.5422 39.1932C27.8907 22.7328 30 21.0454 30 14.9987C29.9992 11.0209 28.4185 7.20624 25.6056 4.39359C22.7927 1.58094 18.9778 0.000574334 14.9999 0Z" fill="#C52600"/>
<g clip-path="url(#clip1_25_134)">
<g clip-path="url(#clip2_25_134)">
<path d="M26.0341 8H3.96631V9.38245H26.0341V8Z" fill="white"/>
<path d="M9.74596 9.927H5.36743V12.2435H9.74596V9.927Z" fill="white"/>
<path d="M9.74596 12.778H5.36743V15.8072H9.74596V12.778Z" fill="white"/>
<path d="M9.74596 16.342H5.36743V18.8366H9.74596V16.342Z" fill="white"/>
<path d="M9.74596 19.3713H5.36743V22H9.74596V19.3713Z" fill="white"/>
<path d="M14.6498 9.927H10.2712V12.2435H14.6498V9.927Z" fill="white"/>
<path d="M14.6498 12.778H10.2712V15.8072H14.6498V12.778Z" fill="white"/>
<path d="M14.6498 16.342H10.2712V18.8366H14.6498V16.342Z" fill="white"/>
<path d="M14.6498 19.3713H10.2712V22H14.6498V19.3713Z" fill="white"/>
<path d="M24.6329 9.927H20.2544V12.2435H24.6329V9.927Z" fill="white"/>
<path d="M24.6329 12.778H20.2544V15.8072H24.6329V12.778Z" fill="white"/>
<path d="M24.6329 16.1638H20.2544V18.8366H24.6329V16.1638Z" fill="white"/>
<path d="M24.6329 19.3713H20.2544V22H24.6329V19.3713Z" fill="white"/>
<path d="M19.7287 9.927H15.175V12.2435H19.7287V9.927Z" fill="white"/>
<path d="M19.7287 19.3713H15.175V22H19.7287V19.3713Z" fill="white"/>
<path d="M15.1719 12.7734L15.9961 13.657L16 18.8398H15.1758L15.1719 12.7734Z" fill="white"/>
<path d="M18.7969 13.6569H19.7344L19.7383 18.8398H18.8008L18.7969 13.6569Z" fill="white"/>
<path d="M15.1719 12.7734L19.7344 12.7734L19.7305 13.6569L15.9961 13.657L15.1719 12.7734Z" fill="white"/>
<path d="M16 17.5H19V18.8398H16V17.5Z" fill="white"/>
<path d="M16 17L16.5 17V17.5H16V17Z" fill="white"/>
<path d="M16 16H19V17H16V16Z" fill="white"/>
<path d="M18.2407 17H19V17.5H18.2407V17Z" fill="white"/>
<path d="M16.5 14.1413H18.2341V15.5426H16.5L16.5 14.1413Z" fill="white"/>
<circle cx="15" cy="15" r="6" fill="#C52600"/>
<path d="M17.1429 14.0625H16.9286V12.9688C16.9286 11.8887 16.058 11 15 11C13.9286 11 13.0714 11.8887 13.0714 12.9688V14.0625H12.8571C12.375 14.0625 12 14.4453 12 14.9375V17.125C12 17.6035 12.375 18 12.8571 18H17.1429C17.6116 18 18 17.6035 18 17.125V14.9375C18 14.459 17.6116 14.0625 17.1429 14.0625ZM13.9286 12.9688C13.9286 12.3672 14.3973 11.875 15 11.875C15.5893 11.875 16.0714 12.3672 16.0714 12.9688V14.0625H13.9286V12.9688Z" fill="white"/>
</g>
</g>
</g>
<defs>
<clipPath id="clip0_25_134">
<rect width="30" height="42" fill="white"/>
</clipPath>
<clipPath id="clip1_25_134">
<rect width="22" height="14" fill="white" transform="translate(4 8)"/>
</clipPath>
<clipPath id="clip2_25_134">
<rect width="23.1186" height="15.3243" fill="white" transform="translate(3.44067 7.43243)"/>
</clipPath>
</defs>
</svg>
