<svg width="30" height="42" viewBox="0 0 30 42" fill="none" xmlns="http://www.w3.org/2000/svg">
<g clip-path="url(#clip0_25_162)">
<path opacity="0.2" d="M15 42C19.9706 42 24 40.8807 24 39.5C24 38.1193 19.9706 37 15 37C10.0294 37 6 38.1193 6 39.5C6 40.8807 10.0294 42 15 42Z" fill="black"/>
<path fill-rule="evenodd" clip-rule="evenodd" d="M14.9999 0C11.0219 0.000208886 7.20684 1.58047 4.39388 4.3932C1.58092 7.20594 0.000417821 11.0208 0 14.9987C0 21.0462 2.10734 22.7352 13.461 39.1932C13.6335 39.4422 13.8637 39.6456 14.132 39.7861C14.4003 39.9266 14.6987 40 15.0016 40C15.3045 40 15.6028 39.9266 15.8711 39.7861C16.1394 39.6456 16.3697 39.4422 16.5422 39.1932C27.8907 22.7328 30 21.0454 30 14.9987C29.9992 11.0209 28.4185 7.20624 25.6056 4.39359C22.7927 1.58094 18.9778 0.000574334 14.9999 0Z" fill="#C52600"/>
<rect x="8.24268" y="14.3864" width="13.7539" height="1.63636" rx="0.774193" fill="white"/>
<rect x="9.93555" y="15.6136" width="10.3683" height="8.38636" rx="0.774193" fill="white"/>
<path d="M15.014 10.0909V13.9772H11.6284C11.6648 13.5221 11.7813 12.3597 11.9561 11.3513C12.1308 10.343 13.3394 10.0909 13.9219 10.0909L14.4679 11.7715L14.9048 10.7211C14.832 10.7211 14.6864 10.6581 14.6864 10.406C14.6864 10.1539 14.9048 10.0909 15.014 10.0909Z" fill="white"/>
<path d="M15.014 10.0909V13.9772H18.6112C18.5725 13.5221 18.4487 12.3597 18.2631 11.3513C18.0774 10.343 16.7932 10.0909 16.1744 10.0909L15.5942 11.7715L15.13 10.7211C15.2074 10.7211 15.3621 10.6581 15.3621 10.406C15.3621 10.1539 15.13 10.0909 15.014 10.0909Z" fill="white"/>
<rect x="13.1096" y="6" width="3.80878" height="3.68182" rx="1.64516" fill="white"/>
</g>
<defs>
<clipPath id="clip0_25_162">
<rect width="30" height="42" fill="white"/>
</clipPath>
</defs>
</svg>
