<svg width="30" height="42" viewBox="0 0 30 42" fill="none" xmlns="http://www.w3.org/2000/svg">
<g clip-path="url(#clip0_25_170)">
<path opacity="0.2" d="M15 42C19.9706 42 24 40.8807 24 39.5C24 38.1193 19.9706 37 15 37C10.0294 37 6 38.1193 6 39.5C6 40.8807 10.0294 42 15 42Z" fill="black"/>
<path fill-rule="evenodd" clip-rule="evenodd" d="M14.9999 0C11.0219 0.000208886 7.20684 1.58047 4.39388 4.3932C1.58092 7.20594 0.000417821 11.0208 0 14.9987C0 21.0462 2.10734 22.7352 13.461 39.1932C13.6335 39.4422 13.8637 39.6456 14.132 39.7861C14.4003 39.9266 14.6987 40 15.0016 40C15.3045 40 15.6028 39.9266 15.8711 39.7861C16.1394 39.6456 16.3697 39.4422 16.5422 39.1932C27.8907 22.7328 30 21.0454 30 14.9987C29.9992 11.0209 28.4185 7.20624 25.6056 4.39359C22.7927 1.58094 18.9778 0.000574334 14.9999 0Z" fill="#C52600"/>
<g clip-path="url(#clip1_25_170)">
<g clip-path="url(#clip2_25_170)">
<path d="M26.773 7.78888H4.55664V9.57078H26.773V7.78888Z" fill="white"/>
<path d="M10.3753 9.927H5.96729V12.2435H10.3753V9.927Z" fill="white"/>
<path d="M10.3753 12.7781H5.96729V15.8073H10.3753V12.7781Z" fill="white"/>
<path d="M10.3753 16.342H5.96729V18.8366H10.3753V16.342Z" fill="white"/>
<path d="M10.3753 19.3713H5.96729V22.4005H10.3753V19.3713Z" fill="white"/>
<path d="M15.3121 9.927H10.9041V12.2435H15.3121V9.927Z" fill="white"/>
<path d="M15.3121 12.778H10.9041V15.8072H15.3121V12.778Z" fill="white"/>
<path d="M15.3121 16.342H10.9041V18.8366H15.3121V16.342Z" fill="white"/>
<path d="M15.3121 19.3713H10.9041V22.4005H15.3121V19.3713Z" fill="white"/>
<path d="M20.4254 9.927H15.8411V12.2435H20.4254V9.927Z" fill="white"/>
<path d="M20.4254 19.3713H15.8411V22.2223H20.4254V19.3713Z" fill="white"/>
<path d="M20.4254 12.778H15.8411V18.8365H20.4254V12.778Z" fill="white"/>
<path d="M27.3019 9.39264H4.02759V9.92721H27.3019V9.39264Z" fill="#C52600"/>
<path d="M25.8914 12.2437H5.43823V12.7782H25.8914V12.2437Z" fill="#C52600"/>
<path d="M15.8411 15.8073H5.43823V16.3419H15.8411V15.8073Z" fill="#C52600"/>
<path d="M10.9042 9.927H10.3752V22.2221H10.9042V9.927Z" fill="#C52600"/>
<path d="M15.841 9.927H15.312V22.2221H15.841V9.927Z" fill="#C52600"/>
<path d="M25.8914 18.8365H5.43823V19.3711H25.8914V18.8365Z" fill="#C52600"/>
<rect x="15.4595" y="9.7027" width="1.32432" height="12.8649" fill="#C52600"/>
</g>
</g>
<rect x="15.8379" y="16.3243" width="8.94349" height="1.10074" rx="0.550368" fill="white"/>
<rect x="16.9387" y="16.3587" width="6.74201" height="5.64128" rx="0.8" fill="white"/>
<path d="M20.3096 13.2113V15.8256H18.1082C18.1318 15.5194 18.2076 14.7375 18.3212 14.0592C18.4348 13.3809 19.2207 13.2113 19.5995 13.2113L19.9546 14.3418L20.2386 13.6352C20.1913 13.6352 20.0966 13.5928 20.0966 13.4233C20.0966 13.2537 20.2386 13.2113 20.3096 13.2113Z" fill="white"/>
<path d="M20.3096 13.2113V15.8256H22.6487C22.6235 15.5194 22.5431 14.7375 22.4223 14.0592C22.3016 13.3809 21.4666 13.2113 21.0642 13.2113L20.6869 14.3418L20.3851 13.6352C20.4354 13.6352 20.536 13.5928 20.536 13.4233C20.536 13.2537 20.3851 13.2113 20.3096 13.2113Z" fill="white"/>
<rect x="19.0713" y="10.4595" width="2.47666" height="2.47666" rx="1.23833" fill="white"/>
</g>
<defs>
<clipPath id="clip0_25_170">
<rect width="30" height="42" fill="white"/>
</clipPath>
<clipPath id="clip1_25_170">
<rect width="10.2162" height="14" fill="white" transform="translate(6 8)"/>
</clipPath>
<clipPath id="clip2_25_170">
<rect width="23.2743" height="15.3243" fill="white" transform="translate(4.02759 7.43243)"/>
</clipPath>
</defs>
</svg>
