<svg width="30" height="42" viewBox="0 0 30 42" fill="none" xmlns="http://www.w3.org/2000/svg">
<g clip-path="url(#clip0_25_220)">
<path opacity="0.2" d="M15 42C19.9706 42 24 40.8807 24 39.5C24 38.1193 19.9706 37 15 37C10.0294 37 6 38.1193 6 39.5C6 40.8807 10.0294 42 15 42Z" fill="black"/>
<path fill-rule="evenodd" clip-rule="evenodd" d="M14.9999 0C11.0219 0.000208886 7.20684 1.58047 4.39388 4.3932C1.58092 7.20594 0.000417821 11.0208 0 14.9987C0 21.0462 2.10734 22.7352 13.461 39.1932C13.6335 39.4422 13.8637 39.6456 14.132 39.7861C14.4003 39.9266 14.6987 40 15.0016 40C15.3045 40 15.6028 39.9266 15.8711 39.7861C16.1394 39.6456 16.3697 39.4422 16.5422 39.1932C27.8907 22.7328 30 21.0454 30 14.9987C29.9992 11.0209 28.4185 7.20624 25.6056 4.39359C22.7927 1.58094 18.9778 0.000574334 14.9999 0Z" fill="#2B8FF4"/>
<path fill-rule="evenodd" clip-rule="evenodd" d="M15.14 6C13.3668 6.00004 11.6335 6.52588 10.1591 7.51103C8.68482 8.49618 7.53574 9.89639 6.8572 11.5346C6.17866 13.1728 6.00115 14.9754 6.3471 16.7145C6.69305 18.4536 7.54693 20.0511 8.80077 21.3049C10.0546 22.5587 11.6521 23.4125 13.3912 23.7585C15.1303 24.1044 16.9329 23.9268 18.5711 23.2482C20.2093 22.5697 21.6095 21.4206 22.5946 19.9462C23.5797 18.4719 24.1055 16.7385 24.1055 14.9654C24.1056 13.788 23.8737 12.6221 23.4232 11.5343C22.9727 10.4466 22.3123 9.45818 21.4797 8.62565C20.6472 7.79312 19.6588 7.13275 18.571 6.68224C17.4832 6.23172 16.3174 5.9999 15.14 6ZM19.1954 13.4174L14.7128 17.9001C14.5288 18.0839 14.2793 18.1871 14.0192 18.1871C13.7591 18.1871 13.5097 18.0839 13.3256 17.9001L11.0842 15.6592C10.9913 15.5685 10.9174 15.4602 10.8666 15.3407C10.8159 15.2212 10.7894 15.0928 10.7887 14.9629C10.7879 14.8331 10.8129 14.7044 10.8623 14.5843C10.9116 14.4642 10.9843 14.3551 11.0761 14.2632C11.1679 14.1714 11.277 14.0987 11.3971 14.0494C11.5172 14.0001 11.6459 13.975 11.7758 13.9758C11.9056 13.9765 12.034 14.003 12.1536 14.0538C12.2731 14.1045 12.3814 14.1784 12.4721 14.2713L14.0193 15.8197L17.8086 12.0306C17.8992 11.9372 18.0074 11.8629 18.1269 11.8117C18.2465 11.7606 18.375 11.7338 18.5051 11.7328C18.6351 11.7318 18.764 11.7567 18.8844 11.806C19.0047 11.8553 19.114 11.9281 19.206 12.02C19.2979 12.112 19.3707 12.2213 19.42 12.3416C19.4693 12.4619 19.4942 12.5909 19.4932 12.7209C19.4922 12.8509 19.4654 12.9795 19.4142 13.099C19.3631 13.2186 19.2887 13.3268 19.1954 13.4174V13.4174Z" fill="white"/>
</g>
<defs>
<clipPath id="clip0_25_220">
<rect width="30" height="42" fill="white"/>
</clipPath>
</defs>
</svg>
