<svg width="30" height="42" viewBox="0 0 30 42" fill="none" xmlns="http://www.w3.org/2000/svg">
<g clip-path="url(#clip0_25_93)">
<path opacity="0.2" d="M15 42C19.9706 42 24 40.8807 24 39.5C24 38.1193 19.9706 37 15 37C10.0294 37 6 38.1193 6 39.5C6 40.8807 10.0294 42 15 42Z" fill="black"/>
<path fill-rule="evenodd" clip-rule="evenodd" d="M14.9999 0C11.0219 0.000208886 7.20684 1.58047 4.39388 4.3932C1.58092 7.20594 0.000417821 11.0208 0 14.9987C0 21.0462 2.10734 22.7352 13.461 39.1932C13.6335 39.4422 13.8637 39.6456 14.132 39.7861C14.4003 39.9266 14.6987 40 15.0016 40C15.3045 40 15.6028 39.9266 15.8711 39.7861C16.1394 39.6456 16.3697 39.4422 16.5422 39.1932C27.8907 22.7328 30 21.0454 30 14.9987C29.9992 11.0209 28.4185 7.20624 25.6056 4.39359C22.7927 1.58094 18.9778 0.000574334 14.9999 0Z" fill="#C52600"/>
<g clip-path="url(#clip1_25_93)">
<path d="M26 8H4V9.77619H26V8Z" fill="white"/>
<path d="M9.74596 9.927H5.36743V12.2435H9.74596V9.927Z" fill="white"/>
<path d="M9.74596 12.778H5.36743V15.8072H9.74596V12.778Z" fill="white"/>
<path d="M9.74596 16.342H5.36743V18.8366H9.74596V16.342Z" fill="white"/>
<path d="M9.74596 19.3713H5.36743V22.4005H9.74596V19.3713Z" fill="white"/>
<path d="M14.6498 9.927H10.2712V12.2435H14.6498V9.927Z" fill="white"/>
<path d="M14.6498 12.778H10.2712V15.8072H14.6498V12.778Z" fill="white"/>
<path d="M14.6498 16.342H10.2712V18.8366H14.6498V16.342Z" fill="white"/>
<path d="M14.6498 19.3713H10.2712V22.4005H14.6498V19.3713Z" fill="white"/>
<path d="M24.6329 9.927H20.2544V12.2435H24.6329V9.927Z" fill="white"/>
<path d="M24.6329 12.778H20.2544V15.8072H24.6329V12.778Z" fill="white"/>
<path d="M24.6329 16.1637H20.2544V18.8365H24.6329V16.1637Z" fill="white"/>
<path d="M24.6329 19.3713H20.2544V22.2223H24.6329V19.3713Z" fill="white"/>
<path d="M19.7287 9.927H15.175V12.2435H19.7287V9.927Z" fill="white"/>
<path d="M19.7287 19.3713H15.175V22.2223H19.7287V19.3713Z" fill="white"/>
<path d="M19.7287 12.778H15.175V18.8365H19.7287V12.778Z" fill="white"/>
<path d="M18.1531 17.0018H16.752V17.6829H18.1531V17.0018Z" fill="#02002A"/>
<path fill-rule="evenodd" clip-rule="evenodd" d="M16.051 13.5964H18.8533V14.2775H16.051V13.5964ZM16.051 15.6397H18.8533V16.3208H16.051V15.6397ZM18.1527 13.5964H18.8533V16.3208H18.1527V13.5964ZM16.051 13.5964H16.7516V16.3208H16.051V13.5964Z" fill="#02002A"/>
<path d="M18.1531 14.2776H16.752V15.6398H18.1531V14.2776Z" fill="white"/>
<path d="M26.5593 9.39264H3.44067V9.92721H26.5593V9.39264Z" fill="#C52600"/>
<path d="M25.1582 12.2437H4.8418V12.7782H25.1582V12.2437Z" fill="#C52600"/>
<path d="M18.1531 17.0018H16.752V17.6829H18.1531V17.0018Z" fill="#C52600"/>
<path d="M18.8533 13.5964H16.051V14.2775H18.8533V13.5964Z" fill="#C52600"/>
<path d="M18.8533 15.6399H16.051V16.321H18.8533V15.6399Z" fill="#C52600"/>
<path d="M16.7516 14.2776H16.051V15.6398H16.7516V14.2776Z" fill="#C52600"/>
<path d="M18.8529 14.2776H18.1523V15.6398H18.8529V14.2776Z" fill="#C52600"/>
<path d="M15.1751 15.8073H4.8418V16.3418H15.1751V15.8073Z" fill="#C52600"/>
<path d="M25.1584 15.8073H20.2544V16.3418H25.1584V15.8073Z" fill="#C52600"/>
<path d="M10.2713 9.927H9.74585V22.2221H10.2713V9.927Z" fill="#C52600"/>
<path d="M5.36722 9.927H4.8418V22.2221H5.36722V9.927Z" fill="#C52600"/>
<path d="M3.9661 7.43243H3.44067V9.92709H3.9661V7.43243Z" fill="#C52600"/>
<path d="M26.5594 7.43243H26.0339V9.92709H26.5594V7.43243Z" fill="#C52600"/>
<path d="M15.1751 9.927H14.6497V22.2221H15.1751V9.927Z" fill="#C52600"/>
<path d="M20.2542 9.927H19.7288V22.2221H20.2542V9.927Z" fill="#C52600"/>
<path d="M25.1582 9.927H24.6328V22.2221H25.1582V9.927Z" fill="#C52600"/>
<path d="M25.1582 18.8365H4.8418V19.3711H25.1582V18.8365Z" fill="#C52600"/>
</g>
</g>
<defs>
<clipPath id="clip0_25_93">
<rect width="30" height="42" fill="white"/>
</clipPath>
<clipPath id="clip1_25_93">
<rect width="24" height="14" fill="white" transform="translate(3 8)"/>
</clipPath>
</defs>
</svg>
